<?xml version="1.0" encoding="utf-8"?>
<!-- Generator: Adobe Illustrator 27.5.0, SVG Export Plug-In . SVG Version: 6.00 Build 0)  -->
<svg version="1.1" xmlns="http://www.w3.org/2000/svg" xmlns:xlink="http://www.w3.org/1999/xlink" x="0px" y="0px"
	 viewBox="0 0 750 500" style="enable-background:new 0 0 750 500;" xml:space="preserve">
<g id="BACKGROUND">
	<rect style="fill:#D9E9F3;" width="750" height="500"/>
</g>
<g id="OBJECTS">
	<g>
		<g>
			<path style="fill:#F46A5B;stroke:#422724;stroke-linecap:round;stroke-linejoin:round;stroke-miterlimit:10;" d="M611.33,368.21
				c-14.69-1.54-29.06-6.09-41.96-13.27c-2.8-1.56-6.62-3.14-8.87-0.84c-1.51,1.54-1.29,4.2-0.05,5.97c1.24,1.77,3.23,2.83,5.2,3.73
				c13.28,6.06,28.19,7.29,43.29,7.35C609.62,370.17,610.3,369.21,611.33,368.21z"/>
			<path style="fill:#F46A5B;stroke:#422724;stroke-linecap:round;stroke-linejoin:round;stroke-miterlimit:10;" d="M607.02,369.96
				c-12.77-0.59-25.45-3.16-37.44-7.6c-2.36-0.87-5.3-1.72-7.15-0.01c-1.53,1.41-1.38,4.01-0.19,5.71c1.19,1.71,3.14,2.7,5.06,3.5
				c12.19,5.06,25.94,4.61,39.04,2.95C606.49,373.1,606.64,371.68,607.02,369.96z"/>
			<path style="fill:#F46A5B;stroke:#422724;stroke-linecap:round;stroke-linejoin:round;stroke-miterlimit:10;" d="M607.11,373.19
				c-10.69-0.78-21.38-1.55-32.07-2.33c-0.84-0.06-1.73-0.11-2.49,0.26c-1.58,0.78-1.79,3.13-0.82,4.6c0.97,1.47,2.7,2.23,4.38,2.76
				c9.87,3.13,20.55,1.05,30.7-1.05C606.95,375.96,607.1,374.48,607.11,373.19z"/>
		</g>
		<path style="fill:#383D59;stroke:#422724;stroke-linecap:round;stroke-linejoin:round;stroke-miterlimit:10;" d="M645.86,379.96
			c-1.1-3.97,0.48-8.16,2.32-11.85c1.84-3.69,4-7.42,4.15-11.53c0.15-4.26-1.9-8.29-4.38-11.76c-7.29-10.2-19.74-17.41-32.16-15.67
			c-1.68,0.23-3.6,0.86-4.13,2.46c-0.49,1.47,0.54,3.1,1.91,3.83c1.37,0.73,2.99,0.77,4.54,0.8c-2.27-0.44-4.7-0.87-6.83,0.03
			c-2.13,0.9-3.6,3.71-2.28,5.61c1.05,1.52,3.21,1.7,5.04,1.52c-2.42-0.37-5,0.46-6.75,2.19c-1.01,0.99-1.77,2.46-1.32,3.8
			c0.46,1.4,2.1,2.13,3.57,2.02c1.47-0.1,2.81-0.84,4.1-1.56c-2.03,0.82-4.09,1.78-5.49,3.46c-1.4,1.68-1.91,4.29-0.63,6.06
			c1.28,1.77,4.57,1.74,5.36-0.3c-1.27,1.06-2.59,2.19-3.2,3.74c-0.61,1.54-0.22,3.61,1.28,4.34c1.37,0.66,2.97-0.02,4.4-0.54
			c1.43-0.52,3.3-0.77,4.24,0.43"/>
		<g>
			<path style="fill:#F2B460;stroke:#422724;stroke-linecap:round;stroke-linejoin:round;stroke-miterlimit:10;" d="M606.46,396.66
				c-1.45-1.29-1.21-3.85,0.2-5.18c1.41-1.34,3.61-1.57,5.48-1.03c1.87,0.53,3.48,1.72,4.97,2.96c1.02,0.84,2.03,1.75,2.69,2.9
				c0.66,1.15,0.92,2.6,0.39,3.81c-0.63,1.44-2.22,2.23-3.77,2.5c-1,0.17-2.11,0.15-2.9-0.47c-0.79-0.62-0.99-2.02-0.17-2.61
				c0.63-0.44,1.59-0.3,2.1-0.88c0.62-0.71,0.02-1.81-0.64-2.49c-0.61-0.62-1.32-1.22-2.18-1.33c-0.86-0.11-1.85,0.52-1.83,1.39
				c0.02,0.62,0.52,1.14,0.58,1.76c0.11,1.1-1.29,1.85-2.36,1.55C607.94,399.23,607.8,397.85,606.46,396.66z"/>
			<path style="fill:#505F7A;stroke:#422724;stroke-linecap:round;stroke-linejoin:round;stroke-miterlimit:10;" d="M648.05,365.71
				c-6.23,3.48-13.87,1.94-20.88,0.73s-15.07-1.71-20.33,3.16c-4.13,3.82-5.3,10.32-3.51,15.71c1.79,5.38,6.19,9.61,11.26,11.98
				c5.08,2.37,10.79,3.03,16.37,2.81c7.82-0.3,15.75-2.35,22.05-7.07c6.3-4.72,10.73-12.36,10.49-20.31
				C657.15,372.42,650.92,369.65,648.05,365.71z"/>
			<path style="fill:#F2B460;stroke:#422724;stroke-linecap:round;stroke-linejoin:round;stroke-miterlimit:10;" d="M601.61,394.23
				c-1.07-1.63-0.17-4.03,1.54-4.95c1.71-0.92,3.89-0.58,5.56,0.43c1.67,1,2.91,2.57,4.03,4.15c0.76,1.08,1.5,2.21,1.84,3.49
				c0.34,1.28,0.22,2.75-0.61,3.78c-0.98,1.23-2.73,1.58-4.29,1.44c-1.01-0.09-2.08-0.4-2.68-1.21c-0.6-0.81-0.43-2.21,0.52-2.56
				c0.72-0.27,1.62,0.13,2.25-0.3c0.79-0.53,0.49-1.75,0.03-2.57c-0.42-0.76-0.96-1.53-1.76-1.85c-0.81-0.32-1.93,0.02-2.13,0.87
				c-0.15,0.6,0.2,1.23,0.1,1.85c-0.18,1.09-1.73,1.45-2.68,0.88C602.37,397.09,602.59,395.72,601.61,394.23z"/>
		</g>
		<g>
			<path style="fill:#F2B460;stroke:#422724;stroke-linecap:round;stroke-linejoin:round;stroke-miterlimit:10;" d="M701.11,351.6
				c0,0,9.1,5.99,11.5,16.5c0,0-13.06-1.12-18.17,0.74C694.44,368.84,697.72,353.71,701.11,351.6z"/>
			<path style="fill:#F46A5B;stroke:#422724;stroke-linecap:round;stroke-linejoin:round;stroke-miterlimit:10;" d="M636.76,352.06
				c0-16.29,14.27-34,32.5-34s33.5,17.71,33.5,34s-15.27,25-33.5,25S636.76,368.35,636.76,352.06z"/>
			<ellipse style="fill:#422724;" cx="687.86" cy="358.36" rx="3.75" ry="4.5"/>
		</g>
		<path style="fill:#505F7A;stroke:#422724;stroke-linecap:round;stroke-linejoin:round;stroke-miterlimit:10;" d="M640.48,376.92
			c-2.26-3.44-2.04-7.92-1.42-11.99s1.54-8.29,0.42-12.25c-1.16-4.1-4.35-7.31-7.77-9.85c-10.07-7.48-24.13-10.52-35.41-5.06
			c-1.52,0.74-3.17,1.92-3.18,3.61c-0.01,1.55,1.47,2.79,3,3.06c1.53,0.27,3.08-0.18,4.57-0.63c-2.3,0.27-4.74,0.61-6.49,2.12
			c-1.75,1.51-2.29,4.63-0.46,6.04c1.46,1.12,3.57,0.64,5.26-0.1c-2.42,0.39-4.62,1.98-5.76,4.15c-0.65,1.25-0.93,2.88-0.1,4.02
			c0.87,1.19,2.65,1.38,4.02,0.83c1.37-0.55,2.42-1.66,3.42-2.74c-1.68,1.4-3.35,2.94-4.17,4.97c-0.81,2.03-0.51,4.67,1.26,5.96
			c1.77,1.29,4.89,0.26,5.01-1.93c-0.88,1.4-1.79,2.88-1.9,4.54c-0.11,1.65,0.9,3.51,2.54,3.74c1.51,0.21,2.82-0.93,4.02-1.87
			c1.2-0.93,2.9-1.74,4.16-0.89"/>
	</g>
	<g>
		<g>
			<path style="fill:#F46A5B;stroke:#422724;stroke-linecap:round;stroke-linejoin:round;stroke-miterlimit:10;" d="M433.26,368.21
				c-14.69-1.54-29.06-6.09-41.96-13.27c-2.8-1.56-6.62-3.14-8.87-0.84c-1.51,1.54-1.29,4.2-0.05,5.97c1.24,1.77,3.23,2.83,5.2,3.73
				c13.28,6.06,28.19,7.29,43.29,7.35C431.56,370.17,432.24,369.21,433.26,368.21z"/>
			<path style="fill:#F46A5B;stroke:#422724;stroke-linecap:round;stroke-linejoin:round;stroke-miterlimit:10;" d="M428.96,369.96
				c-12.77-0.59-25.45-3.16-37.44-7.6c-2.36-0.87-5.3-1.72-7.15-0.01c-1.53,1.41-1.38,4.01-0.19,5.71c1.19,1.71,3.14,2.7,5.06,3.5
				c12.19,5.06,25.94,4.61,39.04,2.95C428.42,373.1,428.58,371.68,428.96,369.96z"/>
			<path style="fill:#F46A5B;stroke:#422724;stroke-linecap:round;stroke-linejoin:round;stroke-miterlimit:10;" d="M429.05,373.19
				c-10.69-0.78-21.38-1.55-32.07-2.33c-0.84-0.06-1.73-0.11-2.49,0.26c-1.58,0.78-1.79,3.13-0.82,4.6s2.7,2.23,4.38,2.76
				c9.87,3.13,20.55,1.05,30.7-1.05C428.89,375.96,429.04,374.48,429.05,373.19z"/>
		</g>
		<path style="fill:#F2B460;stroke:#422724;stroke-linecap:round;stroke-linejoin:round;stroke-miterlimit:10;" d="M523.05,351.6
			c0,0,9.1,5.99,11.5,16.5c0,0-13.06-1.12-18.17,0.74C516.38,368.84,519.65,353.71,523.05,351.6z"/>
		<g>
			<path style="fill:#383D59;stroke:#422724;stroke-linecap:round;stroke-linejoin:round;stroke-miterlimit:10;" d="M453.27,374.85
				c-3.16,1.84-6.36,3.71-8.95,6.3c-0.87,0.87-1.69,1.89-1.82,3.11c-0.15,1.4,0.79,2.84,2.13,3.27"/>
			<path style="fill:#383D59;stroke:#422724;stroke-linecap:round;stroke-linejoin:round;stroke-miterlimit:10;" d="M478.38,374.83
				c2.58,0.22,4.52,2.81,4.64,5.4c0.12,2.59-1.24,5.05-3.03,6.92c-1.79,1.87-4.01,3.26-6.11,4.78c-8.11,5.87-14.64,13.9-18.72,23.04
				c-0.45,1.01-0.93,2.09-1.86,2.69c-2,1.27-4.77-0.73-5.17-3.07c-0.4-2.34,0.75-4.63,1.87-6.72c-0.81,1.88-3.56,2.35-5.23,1.16
				c-1.67-1.19-2.23-3.52-1.75-5.51c0.47-1.99,1.81-3.67,3.31-5.06c-0.99,1.29-3.21,1.12-4.27-0.12s-1.04-3.16-0.27-4.6
				c0.76-1.44,2.13-2.47,3.58-3.22c-1.08,0.95-2.94-0.17-3.15-1.6c-0.21-1.42,0.65-2.77,1.58-3.87c3.25-3.83,7.85-6.49,12.79-7.39"
				/>
		</g>
		<path style="fill:#F2B460;stroke:#422724;stroke-linecap:round;stroke-linejoin:round;stroke-miterlimit:10;" d="M428.39,396.66
			c-1.45-1.29-1.21-3.85,0.2-5.18c1.41-1.34,3.61-1.57,5.48-1.03c1.87,0.53,3.48,1.72,4.97,2.96c1.02,0.84,2.03,1.75,2.69,2.9
			s0.92,2.6,0.39,3.81c-0.63,1.44-2.22,2.23-3.77,2.5c-1,0.17-2.11,0.15-2.9-0.47c-0.79-0.62-0.99-2.02-0.17-2.61
			c0.63-0.44,1.59-0.3,2.1-0.88c0.62-0.71,0.01-1.81-0.64-2.49c-0.61-0.62-1.32-1.22-2.18-1.33c-0.86-0.11-1.85,0.52-1.83,1.39
			c0.02,0.62,0.52,1.14,0.58,1.76c0.11,1.1-1.29,1.85-2.36,1.55C429.88,399.23,429.73,397.85,428.39,396.66z"/>
		<path style="fill:#505F7A;stroke:#422724;stroke-linecap:round;stroke-linejoin:round;stroke-miterlimit:10;" d="M469.99,365.71
			c-6.23,3.48-13.87,1.94-20.88,0.73c-7.01-1.21-15.07-1.71-20.33,3.16c-4.13,3.82-5.3,10.32-3.51,15.71
			c1.79,5.38,6.19,9.61,11.26,11.98c5.08,2.37,10.79,3.03,16.37,2.81c7.82-0.3,15.75-2.35,22.05-7.07
			c6.3-4.72,10.73-12.36,10.49-20.31C479.09,372.42,472.86,369.65,469.99,365.71z"/>
		<path style="fill:#F46A5B;stroke:#422724;stroke-linecap:round;stroke-linejoin:round;stroke-miterlimit:10;" d="M458.7,352.06
			c0-16.29,14.27-34,32.5-34c18.23,0,33.5,17.71,33.5,34s-15.27,25-33.5,25C472.97,377.06,458.7,368.35,458.7,352.06z"/>
		<ellipse style="fill:#422724;" cx="509.8" cy="358.36" rx="3.75" ry="4.5"/>
		<path style="fill:#F2B460;stroke:#422724;stroke-linecap:round;stroke-linejoin:round;stroke-miterlimit:10;" d="M423.54,394.23
			c-1.07-1.63-0.17-4.03,1.54-4.95c1.71-0.92,3.89-0.58,5.56,0.43c1.67,1,2.91,2.57,4.03,4.15c0.76,1.08,1.5,2.21,1.84,3.49
			s0.22,2.75-0.61,3.78c-0.98,1.23-2.73,1.58-4.29,1.44c-1.01-0.09-2.08-0.4-2.68-1.21c-0.6-0.81-0.43-2.21,0.52-2.56
			c0.72-0.27,1.62,0.13,2.25-0.3c0.79-0.53,0.49-1.75,0.03-2.57c-0.42-0.76-0.96-1.53-1.76-1.85c-0.8-0.32-1.93,0.02-2.13,0.87
			c-0.15,0.6,0.2,1.23,0.1,1.85c-0.18,1.09-1.73,1.45-2.68,0.88C424.31,397.09,424.53,395.72,423.54,394.23z"/>
		<g>
			<path style="fill:#505F7A;stroke:#422724;stroke-linecap:round;stroke-linejoin:round;stroke-miterlimit:10;" d="M435.04,375.95
				c-3.33,1.52-6.69,3.07-9.52,5.4c-0.95,0.78-1.87,1.72-2.11,2.92c-0.28,1.38,0.51,2.9,1.8,3.46"/>
			<path style="fill:#505F7A;stroke:#422724;stroke-linecap:round;stroke-linejoin:round;stroke-miterlimit:10;" d="M460.03,378.37
				c2.55,0.47,4.23,3.23,4.09,5.82c-0.14,2.59-1.73,4.91-3.69,6.6c-1.97,1.69-4.31,2.86-6.55,4.17
				c-8.64,5.06-15.92,12.42-20.87,21.11c-0.55,0.96-1.12,2-2.11,2.49c-2.11,1.07-4.68-1.19-4.85-3.56c-0.17-2.37,1.2-4.53,2.51-6.51
				c-0.99,1.79-3.77,1.99-5.32,0.65c-1.55-1.34-1.87-3.72-1.21-5.65c0.66-1.93,2.16-3.48,3.79-4.71c-1.12,1.19-3.3,0.81-4.24-0.53
				c-0.93-1.34-0.72-3.24,0.18-4.6c0.9-1.36,2.36-2.25,3.88-2.86c-1.17,0.84-2.91-0.46-2.98-1.9c-0.07-1.44,0.92-2.7,1.95-3.7
				c3.6-3.5,8.44-5.7,13.45-6.11"/>
		</g>
	</g>
	<g>
		<g>
			<path style="fill:#F46A5B;stroke:#422724;stroke-linecap:round;stroke-linejoin:round;stroke-miterlimit:10;" d="M260.7,368.21
				c-14.69-1.54-29.06-6.09-41.96-13.27c-2.8-1.56-6.62-3.14-8.87-0.84c-1.51,1.54-1.29,4.2-0.05,5.97c1.24,1.77,3.23,2.83,5.2,3.73
				c13.28,6.06,28.19,7.29,43.29,7.35C258.99,370.17,259.68,369.21,260.7,368.21z"/>
			<path style="fill:#F46A5B;stroke:#422724;stroke-linecap:round;stroke-linejoin:round;stroke-miterlimit:10;" d="M256.39,369.96
				c-12.77-0.59-25.45-3.16-37.44-7.6c-2.36-0.87-5.3-1.72-7.15-0.01c-1.53,1.41-1.38,4.01-0.19,5.71c1.19,1.71,3.14,2.7,5.06,3.5
				c12.19,5.06,25.94,4.61,39.04,2.95C255.86,373.1,256.02,371.68,256.39,369.96z"/>
			<path style="fill:#F46A5B;stroke:#422724;stroke-linecap:round;stroke-linejoin:round;stroke-miterlimit:10;" d="M256.48,373.19
				c-10.69-0.78-21.38-1.55-32.07-2.33c-0.84-0.06-1.73-0.11-2.49,0.26c-1.58,0.78-1.79,3.13-0.82,4.6s2.7,2.23,4.38,2.76
				c9.87,3.13,20.55,1.05,30.7-1.05C256.33,375.96,256.48,374.48,256.48,373.19z"/>
		</g>
		<path style="fill:#383D59;stroke:#422724;stroke-linecap:round;stroke-linejoin:round;stroke-miterlimit:10;" d="M308.68,370.15
			c-2.83,3.77-2.65,8.98-1.9,13.63c0.76,4.66,1.96,9.46,0.76,14.02c-2.09,7.93-10.39,12.19-16.18,17.99
			c-3.8,3.81-6.67,8.55-8.27,13.69c-0.67,2.15-1.62,4.82-3.86,5.02c-1.75,0.16-3.24-1.53-3.51-3.27c-0.27-1.74,0.33-3.48,0.92-5.14
			c-2.46,1.26-5.46-1.39-5.64-4.15c-0.18-2.76,1.43-5.28,2.97-7.57c-2.22-0.72-3.94-2.8-4.22-5.11c-0.28-2.32,0.88-4.75,2.86-5.98
			c-1.9-0.95-3.21-2.97-3.3-5.09s1.04-4.25,2.86-5.36c-1.66-2.42-1.97-5.7-0.79-8.39c1.18-2.68,3.81-4.68,6.72-5.09"/>
		<path style="fill:#F2B460;stroke:#422724;stroke-linecap:round;stroke-linejoin:round;stroke-miterlimit:10;" d="M350.48,351.6
			c0,0,9.1,5.99,11.5,16.5c0,0-13.06-1.12-18.17,0.74C343.82,368.84,347.09,353.71,350.48,351.6z"/>
		<path style="fill:#F2B460;stroke:#422724;stroke-linecap:round;stroke-linejoin:round;stroke-miterlimit:10;" d="M255.83,396.66
			c-1.45-1.29-1.21-3.85,0.2-5.18c1.41-1.34,3.61-1.57,5.48-1.03c1.87,0.54,3.48,1.72,4.97,2.96c1.02,0.84,2.03,1.75,2.69,2.9
			c0.66,1.15,0.92,2.6,0.39,3.81c-0.63,1.44-2.22,2.23-3.77,2.5c-1,0.17-2.11,0.15-2.9-0.47c-0.79-0.63-0.99-2.02-0.17-2.61
			c0.63-0.44,1.59-0.3,2.1-0.88c0.62-0.71,0.01-1.81-0.64-2.49c-0.61-0.62-1.32-1.22-2.18-1.33c-0.86-0.11-1.85,0.52-1.83,1.39
			c0.02,0.62,0.52,1.14,0.58,1.76c0.11,1.1-1.29,1.85-2.36,1.55C257.31,399.23,257.17,397.85,255.83,396.66z"/>
		<path style="fill:#505F7A;stroke:#422724;stroke-linecap:round;stroke-linejoin:round;stroke-miterlimit:10;" d="M297.42,365.71
			c-6.23,3.48-13.87,1.94-20.88,0.73c-7.01-1.21-15.07-1.71-20.33,3.16c-4.13,3.82-5.3,10.32-3.51,15.71
			c1.79,5.38,6.19,9.61,11.26,11.98c5.08,2.37,10.79,3.03,16.37,2.81c7.82-0.3,15.75-2.35,22.05-7.07
			c6.3-4.72,10.73-12.36,10.49-20.31C306.52,372.42,300.3,369.65,297.42,365.71z"/>
		<path style="fill:#F46A5B;stroke:#422724;stroke-linecap:round;stroke-linejoin:round;stroke-miterlimit:10;" d="M286.14,352.06
			c0-16.29,14.27-34,32.5-34c18.23,0,33.5,17.71,33.5,34s-15.27,25-33.5,25C300.41,377.06,286.14,368.35,286.14,352.06z"/>
		<ellipse style="fill:#422724;" cx="337.24" cy="358.36" rx="3.75" ry="4.5"/>
		<path style="fill:#F2B460;stroke:#422724;stroke-linecap:round;stroke-linejoin:round;stroke-miterlimit:10;" d="M250.98,394.23
			c-1.07-1.63-0.17-4.03,1.54-4.95c1.71-0.92,3.89-0.58,5.56,0.43c1.67,1,2.91,2.57,4.03,4.15c0.76,1.08,1.5,2.21,1.84,3.49
			c0.34,1.28,0.22,2.75-0.61,3.78c-0.98,1.23-2.73,1.58-4.29,1.44c-1.01-0.09-2.08-0.4-2.68-1.21c-0.6-0.81-0.43-2.21,0.52-2.56
			c0.72-0.27,1.62,0.13,2.25-0.3c0.79-0.53,0.49-1.75,0.03-2.57c-0.42-0.76-0.96-1.53-1.76-1.85c-0.8-0.32-1.93,0.02-2.13,0.87
			c-0.15,0.6,0.2,1.23,0.1,1.85c-0.18,1.09-1.73,1.45-2.68,0.88S251.96,395.72,250.98,394.23z"/>
		<path style="fill:#505F7A;stroke:#422724;stroke-linecap:round;stroke-linejoin:round;stroke-miterlimit:10;" d="M292.7,376.1
			c-3.41,3.27-4.07,8.43-4.08,13.15s0.4,9.65-1.52,13.96c-3.34,7.48-12.23,10.35-18.88,15.13c-4.37,3.14-7.96,7.36-10.38,12.17
			c-1.01,2.01-2.38,4.49-4.62,4.33c-1.76-0.13-2.95-2.03-2.94-3.79c0.01-1.76,0.89-3.38,1.74-4.92c-2.63,0.84-5.16-2.26-4.89-5.01
			c0.27-2.75,2.27-4.98,4.16-6.99c-2.07-1.07-3.43-3.4-3.34-5.73c0.09-2.33,1.64-4.54,3.79-5.44c-1.72-1.24-2.69-3.45-2.43-5.56
			c0.26-2.11,1.72-4.02,3.69-4.82c-1.25-2.65-1.02-5.95,0.58-8.41c1.6-2.46,4.52-4,7.45-3.93"/>
	</g>
	<g>
		<g>
			<path style="fill:#F46A5B;stroke:#422724;stroke-linecap:round;stroke-linejoin:round;stroke-miterlimit:10;" d="M89.61,368.21
				c-14.69-1.54-29.06-6.09-41.96-13.27c-2.8-1.56-6.62-3.14-8.87-0.84c-1.51,1.54-1.29,4.2-0.05,5.97c1.24,1.77,3.23,2.83,5.2,3.73
				c13.28,6.06,28.19,7.29,43.29,7.35C87.9,370.17,88.58,369.21,89.61,368.21z"/>
			<path style="fill:#F46A5B;stroke:#422724;stroke-linecap:round;stroke-linejoin:round;stroke-miterlimit:10;" d="M85.3,369.96
				c-12.77-0.59-25.45-3.16-37.44-7.6c-2.36-0.87-5.3-1.72-7.15-0.01c-1.53,1.41-1.38,4.01-0.19,5.71c1.19,1.71,3.14,2.7,5.06,3.5
				c12.19,5.06,25.94,4.61,39.04,2.95C84.77,373.1,84.92,371.68,85.3,369.96z"/>
			<path style="fill:#F46A5B;stroke:#422724;stroke-linecap:round;stroke-linejoin:round;stroke-miterlimit:10;" d="M85.39,373.19
				c-10.69-0.78-21.38-1.55-32.07-2.33c-0.84-0.06-1.73-0.11-2.49,0.26c-1.58,0.78-1.79,3.13-0.82,4.6c0.97,1.47,2.7,2.23,4.38,2.76
				c9.87,3.13,20.55,1.05,30.7-1.05C85.23,375.96,85.38,374.48,85.39,373.19z"/>
		</g>
		<path style="fill:#383D59;stroke:#422724;stroke-linecap:round;stroke-linejoin:round;stroke-miterlimit:10;" d="M134.19,369.21
			c-4.65,6.3-4.07,14.92-3.04,22.68c1.03,7.76,2.19,16.17-1.65,22.99c-2.92,5.19-8.24,8.52-12.18,12.99
			c-2.93,3.34-5.09,7.35-6.26,11.63c-0.6,2.21-1.21,4.82-3.31,5.72c-2.49,1.06-5.35-1.36-5.79-4.03c-0.44-2.67,0.74-5.32,1.89-7.77
			c-3.58,1.02-7.77-1.1-9.09-4.58c-1.31-3.49,0.44-7.84,3.8-9.44c-2.49-1.11-4.26-3.67-4.43-6.38c-0.17-2.72,1.28-5.47,3.61-6.88
			c-2.64-1.26-4.31-4.3-3.96-7.21s2.71-5.46,5.58-6.04c-3.3-6.33,0.43-15.23,7.25-17.31"/>
		<path style="fill:#F2B460;stroke:#422724;stroke-linecap:round;stroke-linejoin:round;stroke-miterlimit:10;" d="M179.39,351.6
			c0,0,9.1,5.99,11.5,16.5c0,0-13.06-1.12-18.17,0.74C172.72,368.84,176,353.71,179.39,351.6z"/>
		<path style="fill:#F2B460;stroke:#422724;stroke-linecap:round;stroke-linejoin:round;stroke-miterlimit:10;" d="M84.74,396.66
			c-1.45-1.29-1.21-3.85,0.2-5.18c1.41-1.34,3.61-1.57,5.48-1.03c1.87,0.54,3.48,1.72,4.97,2.96c1.02,0.84,2.03,1.75,2.69,2.9
			c0.66,1.15,0.92,2.6,0.39,3.81c-0.63,1.44-2.22,2.23-3.77,2.5c-1,0.17-2.11,0.15-2.9-0.47c-0.79-0.63-0.99-2.02-0.17-2.61
			c0.63-0.44,1.59-0.3,2.1-0.88c0.62-0.71,0.01-1.81-0.64-2.49c-0.61-0.62-1.32-1.22-2.18-1.33c-0.86-0.1-1.85,0.52-1.83,1.39
			c0.02,0.62,0.52,1.14,0.58,1.76c0.11,1.1-1.29,1.85-2.36,1.55C86.22,399.23,86.08,397.85,84.74,396.66z"/>
		<path style="fill:#505F7A;stroke:#422724;stroke-linecap:round;stroke-linejoin:round;stroke-miterlimit:10;" d="M126.33,365.71
			c-6.23,3.48-13.87,1.94-20.88,0.73c-7.01-1.21-15.07-1.71-20.33,3.16c-4.13,3.82-5.3,10.32-3.51,15.71
			c1.79,5.38,6.19,9.61,11.26,11.98c5.08,2.37,10.79,3.03,16.37,2.81c7.82-0.3,15.75-2.35,22.05-7.07
			c6.3-4.72,10.73-12.36,10.49-20.31C135.43,372.42,129.21,369.65,126.33,365.71z"/>
		<path style="fill:#F46A5B;stroke:#422724;stroke-linecap:round;stroke-linejoin:round;stroke-miterlimit:10;" d="M115.04,352.06
			c0-16.29,14.27-34,32.5-34s33.5,17.71,33.5,34s-15.27,25-33.5,25S115.04,368.35,115.04,352.06z"/>
		<ellipse style="fill:#422724;" cx="166.14" cy="358.36" rx="3.75" ry="4.5"/>
		<path style="fill:#F2B460;stroke:#422724;stroke-linecap:round;stroke-linejoin:round;stroke-miterlimit:10;" d="M79.89,394.23
			c-1.07-1.63-0.17-4.03,1.54-4.95s3.89-0.58,5.56,0.43c1.67,1,2.91,2.57,4.03,4.15c0.76,1.08,1.5,2.21,1.84,3.49
			c0.34,1.28,0.22,2.75-0.61,3.78c-0.98,1.23-2.73,1.58-4.29,1.44c-1.01-0.09-2.08-0.4-2.68-1.21c-0.6-0.81-0.43-2.21,0.52-2.56
			c0.72-0.27,1.62,0.13,2.25-0.3c0.79-0.53,0.49-1.75,0.03-2.57c-0.42-0.76-0.96-1.53-1.76-1.85c-0.8-0.32-1.93,0.02-2.13,0.87
			c-0.15,0.6,0.2,1.23,0.1,1.85c-0.18,1.09-1.73,1.45-2.68,0.88S80.87,395.72,79.89,394.23z"/>
		<path style="fill:#505F7A;stroke:#422724;stroke-linecap:round;stroke-linejoin:round;stroke-miterlimit:10;" d="M123.71,375.34
			c-5.5,5.57-6.15,14.19-6.24,22.02c-0.09,7.83-0.13,16.31-4.9,22.52c-3.63,4.73-9.37,7.26-13.9,11.13
			c-3.38,2.89-6.08,6.55-7.85,10.63c-0.91,2.1-1.88,4.6-4.09,5.19c-2.62,0.7-5.1-2.11-5.16-4.82c-0.06-2.71,1.49-5.16,2.98-7.42
			c-3.69,0.5-7.54-2.19-8.34-5.83c-0.8-3.64,1.55-7.69,5.1-8.8c-2.3-1.45-3.7-4.24-3.47-6.95c0.23-2.71,2.04-5.24,4.55-6.3
			c-2.44-1.62-3.66-4.87-2.89-7.7c0.77-2.83,3.46-5.01,6.38-5.19c-2.37-6.73,2.59-15.01,9.64-16.1"/>
	</g>
	<g>
		<path style="fill:#383D59;stroke:#422724;stroke-linecap:round;stroke-linejoin:round;stroke-miterlimit:10;" d="M648.87,170.06
			c-1.85,8.99,6.16,16.25,6.79,25.13c0.44,6.21-2.85,12.65-7.5,17.75c-4.65,5.09-10.56,9.06-16.43,12.91
			c-1.83,1.2-3.74,2.42-5.86,2.84s-4.53-0.2-5.3-1.94s1.02-4.39,3.1-4.16c-1.86-0.56-3.12-2.28-3.02-4.15
			c0.1-1.87,1.55-3.76,3.49-4.54c-2.24,1.59-5.48-0.36-5.42-2.83c0.07-2.47,2.35-4.69,4.81-5.93c-2.2-0.17-3.92-1.97-3.85-4.02
			c0.07-2.06,1.92-4.12,4.14-4.62c-2.43-0.14-4.24-2.34-3.79-4.6c0.45-2.26,3.07-4.18,5.49-4.01"/>
		<g>
			<path style="fill:#F46A5B;stroke:#422724;stroke-linecap:round;stroke-linejoin:round;stroke-miterlimit:10;" d="M610.02,174.49
				c-14.69-1.54-29.06-6.09-41.96-13.27c-2.8-1.56-6.62-3.14-8.87-0.84c-1.51,1.54-1.29,4.2-0.05,5.97c1.24,1.77,3.23,2.83,5.2,3.73
				c13.28,6.06,28.19,7.29,43.29,7.35C608.31,176.45,608.99,175.49,610.02,174.49z"/>
			<path style="fill:#F46A5B;stroke:#422724;stroke-linecap:round;stroke-linejoin:round;stroke-miterlimit:10;" d="M605.71,176.24
				c-12.77-0.59-25.45-3.16-37.44-7.6c-2.36-0.87-5.3-1.72-7.15-0.01c-1.53,1.41-1.38,4.01-0.19,5.71s3.14,2.7,5.06,3.5
				c12.19,5.06,25.94,4.61,39.04,2.95C605.18,179.38,605.33,177.96,605.71,176.24z"/>
			<path style="fill:#F46A5B;stroke:#422724;stroke-linecap:round;stroke-linejoin:round;stroke-miterlimit:10;" d="M605.8,179.47
				c-10.69-0.78-21.38-1.55-32.07-2.33c-0.84-0.06-1.73-0.11-2.49,0.26c-1.58,0.78-1.79,3.13-0.82,4.6c0.97,1.47,2.7,2.23,4.38,2.76
				c9.87,3.13,20.55,1.05,30.7-1.05C605.64,182.23,605.79,180.76,605.8,179.47z"/>
		</g>
		<path style="fill:#F2B460;stroke:#422724;stroke-linecap:round;stroke-linejoin:round;stroke-miterlimit:10;" d="M699.8,157.88
			c0,0,9.1,5.99,11.5,16.5c0,0-13.06-1.12-18.17,0.74C693.13,175.12,696.41,159.99,699.8,157.88z"/>
		<path style="fill:#F2B460;stroke:#422724;stroke-linecap:round;stroke-linejoin:round;stroke-miterlimit:10;" d="M605.15,202.94
			c-1.45-1.29-1.21-3.85,0.2-5.18c1.41-1.34,3.61-1.57,5.48-1.03c1.87,0.53,3.48,1.72,4.97,2.96c1.02,0.84,2.03,1.75,2.69,2.9
			c0.66,1.15,0.92,2.6,0.39,3.81c-0.63,1.44-2.22,2.23-3.77,2.5c-1,0.17-2.11,0.15-2.9-0.47c-0.79-0.63-0.99-2.02-0.17-2.61
			c0.63-0.44,1.59-0.3,2.1-0.88c0.62-0.71,0.01-1.81-0.64-2.49c-0.61-0.62-1.32-1.22-2.18-1.33c-0.86-0.1-1.85,0.52-1.83,1.39
			c0.02,0.62,0.52,1.14,0.58,1.76c0.11,1.1-1.29,1.85-2.36,1.55C606.63,205.51,606.49,204.13,605.15,202.94z"/>
		<path style="fill:#505F7A;stroke:#422724;stroke-linecap:round;stroke-linejoin:round;stroke-miterlimit:10;" d="M646.74,171.99
			c-6.23,3.48-13.87,1.94-20.88,0.73c-7.01-1.21-15.07-1.71-20.33,3.16c-4.13,3.82-5.3,10.32-3.51,15.71
			c1.79,5.38,6.19,9.61,11.26,11.98c5.08,2.37,10.79,3.03,16.37,2.81c7.82-0.3,15.75-2.35,22.05-7.07
			c6.3-4.72,10.73-12.36,10.49-20.31C655.84,178.7,649.62,175.93,646.74,171.99z"/>
		<path style="fill:#F46A5B;stroke:#422724;stroke-linecap:round;stroke-linejoin:round;stroke-miterlimit:10;" d="M635.45,158.34
			c0-16.29,14.27-34,32.5-34c18.23,0,33.5,17.71,33.5,34s-15.27,25-33.5,25C649.72,183.34,635.45,174.63,635.45,158.34z"/>
		<ellipse style="fill:#422724;" cx="686.55" cy="164.64" rx="3.75" ry="4.5"/>
		<path style="fill:#F2B460;stroke:#422724;stroke-linecap:round;stroke-linejoin:round;stroke-miterlimit:10;" d="M600.3,200.51
			c-1.07-1.63-0.17-4.03,1.54-4.95c1.71-0.92,3.89-0.58,5.56,0.43c1.67,1.01,2.91,2.57,4.03,4.15c0.76,1.08,1.5,2.21,1.84,3.49
			c0.34,1.28,0.22,2.75-0.61,3.78c-0.98,1.23-2.73,1.58-4.29,1.44c-1.01-0.09-2.08-0.4-2.68-1.21c-0.6-0.81-0.43-2.21,0.52-2.56
			c0.72-0.27,1.62,0.13,2.25-0.3c0.79-0.53,0.49-1.75,0.03-2.57c-0.42-0.76-0.96-1.53-1.76-1.85c-0.81-0.32-1.93,0.02-2.13,0.87
			c-0.15,0.6,0.2,1.23,0.1,1.85c-0.18,1.09-1.73,1.45-2.68,0.88C601.06,203.37,601.28,202,600.3,200.51z"/>
		<path style="fill:#505F7A;stroke:#422724;stroke-linecap:round;stroke-linejoin:round;stroke-miterlimit:10;" d="M642.23,180.33
			c-5.71,8.27-1.86,19.89-5.31,29.32c-2.41,6.61-8.27,11.5-14.72,14.3c-6.45,2.81-13.52,3.8-20.5,4.69
			c-2.17,0.28-4.43,0.54-6.51-0.13s-3.95-2.56-3.85-4.75c0.1-2.19,2.89-3.97,4.65-2.66c-1.41-1.54-1.75-3.97-0.81-5.84
			c0.94-1.87,3.09-3.05,5.16-2.84c-2.72,0.47-4.73-3.22-3.55-5.72s4.21-3.59,6.98-3.58c-1.88-1.32-2.6-4.06-1.61-6.13
			c0.99-2.07,3.58-3.23,5.79-2.59c-2.1-1.41-2.72-4.61-1.3-6.7c1.42-2.09,4.62-2.69,6.7-1.26"/>
	</g>
	<g>
		<g>
			<path style="fill:#F46A5B;stroke:#422724;stroke-linecap:round;stroke-linejoin:round;stroke-miterlimit:10;" d="M431.85,174.49
				c-14.69-1.54-29.06-6.09-41.96-13.27c-2.8-1.56-6.62-3.14-8.87-0.84c-1.51,1.54-1.29,4.2-0.05,5.97c1.24,1.77,3.23,2.83,5.2,3.73
				c13.28,6.06,28.19,7.29,43.29,7.35C430.14,176.45,430.82,175.49,431.85,174.49z"/>
			<path style="fill:#F46A5B;stroke:#422724;stroke-linecap:round;stroke-linejoin:round;stroke-miterlimit:10;" d="M427.54,176.24
				c-12.77-0.59-25.45-3.16-37.44-7.6c-2.36-0.87-5.3-1.72-7.15-0.01c-1.53,1.41-1.38,4.01-0.19,5.71c1.19,1.71,3.14,2.7,5.06,3.5
				c12.19,5.06,25.94,4.61,39.04,2.95C427.01,179.38,427.16,177.96,427.54,176.24z"/>
			<path style="fill:#F46A5B;stroke:#422724;stroke-linecap:round;stroke-linejoin:round;stroke-miterlimit:10;" d="M427.63,179.47
				c-10.69-0.78-21.38-1.55-32.07-2.33c-0.84-0.06-1.73-0.11-2.49,0.26c-1.58,0.78-1.79,3.13-0.82,4.6s2.7,2.23,4.38,2.76
				c9.87,3.13,20.55,1.05,30.7-1.05C427.47,182.23,427.62,180.76,427.63,179.47z"/>
		</g>
		<path style="fill:#F2B460;stroke:#422724;stroke-linecap:round;stroke-linejoin:round;stroke-miterlimit:10;" d="M521.63,157.88
			c0,0,9.1,5.99,11.5,16.5c0,0-13.06-1.12-18.17,0.74C514.96,175.12,518.24,159.99,521.63,157.88z"/>
		<path style="fill:#F2B460;stroke:#422724;stroke-linecap:round;stroke-linejoin:round;stroke-miterlimit:10;" d="M426.98,202.94
			c-1.45-1.29-1.21-3.85,0.2-5.18c1.41-1.34,3.61-1.57,5.48-1.03c1.87,0.54,3.48,1.72,4.97,2.96c1.02,0.84,2.03,1.75,2.69,2.9
			c0.66,1.15,0.92,2.6,0.39,3.81c-0.63,1.44-2.22,2.23-3.77,2.5c-1,0.17-2.11,0.15-2.9-0.47c-0.79-0.63-0.99-2.02-0.17-2.61
			c0.63-0.44,1.59-0.3,2.1-0.88c0.62-0.71,0.01-1.81-0.64-2.49c-0.61-0.62-1.32-1.22-2.18-1.33c-0.86-0.1-1.85,0.52-1.83,1.39
			c0.02,0.62,0.52,1.14,0.58,1.76c0.11,1.1-1.29,1.85-2.36,1.55C428.46,205.51,428.32,204.13,426.98,202.94z"/>
		<path style="fill:#505F7A;stroke:#422724;stroke-linecap:round;stroke-linejoin:round;stroke-miterlimit:10;" d="M468.57,171.99
			c-6.23,3.48-13.87,1.94-20.88,0.73c-7.01-1.21-15.07-1.71-20.33,3.16c-4.13,3.82-5.3,10.32-3.51,15.71
			c1.79,5.38,6.19,9.61,11.26,11.98c5.08,2.37,10.79,3.03,16.37,2.81c7.82-0.3,15.75-2.35,22.05-7.07s10.73-12.36,10.49-20.31
			C477.67,178.7,471.44,175.93,468.57,171.99z"/>
		<path style="fill:#F46A5B;stroke:#422724;stroke-linecap:round;stroke-linejoin:round;stroke-miterlimit:10;" d="M457.28,158.34
			c0-16.29,14.27-34,32.5-34s33.5,17.71,33.5,34s-15.27,25-33.5,25C471.56,183.34,457.28,174.63,457.28,158.34z"/>
		<path style="fill:#505F7A;stroke:#422724;stroke-linecap:round;stroke-linejoin:round;stroke-miterlimit:10;" d="M416.91,192.65
			c-0.34-1.35,0.34-2.81,1.39-3.71c1.06-0.9,2.44-1.34,3.81-1.6c4-0.76,8.24-0.15,11.86,1.69"/>
		<ellipse style="fill:#422724;" cx="508.38" cy="164.64" rx="3.75" ry="4.5"/>
		<path style="fill:#505F7A;stroke:#422724;stroke-linecap:round;stroke-linejoin:round;stroke-miterlimit:10;" d="M432.39,192.53
			c-4.75-1.38-9.63-2.27-14.56-2.67c-1.54-0.12-3.31-0.1-4.33,1.06c-0.99,1.14-0.81,2.85-0.78,4.28c2.81,0.51,5.52,1.51,7.99,2.94"
			/>
		<path style="fill:#F2B460;stroke:#422724;stroke-linecap:round;stroke-linejoin:round;stroke-miterlimit:10;" d="M422.13,200.51
			c-1.07-1.63-0.17-4.03,1.54-4.95c1.71-0.92,3.89-0.58,5.56,0.43c1.67,1,2.91,2.57,4.03,4.15c0.76,1.08,1.5,2.21,1.84,3.49
			s0.22,2.75-0.61,3.78c-0.98,1.23-2.73,1.58-4.29,1.44c-1.01-0.09-2.08-0.4-2.68-1.21c-0.6-0.81-0.43-2.21,0.52-2.56
			c0.72-0.27,1.62,0.13,2.25-0.3c0.79-0.53,0.49-1.75,0.03-2.57c-0.42-0.76-0.96-1.53-1.76-1.85c-0.8-0.32-1.93,0.02-2.13,0.87
			c-0.15,0.6,0.2,1.23,0.1,1.85c-0.18,1.09-1.73,1.45-2.68,0.88C422.89,203.37,423.11,202,422.13,200.51z"/>
		<path style="fill:#505F7A;stroke:#422724;stroke-linecap:round;stroke-linejoin:round;stroke-miterlimit:10;" d="M458.65,183.96
			c0.36,2.94,1.49,5.77,2.98,8.14c1.11,1.77,0.33,4.14-1.59,4.96c-6.88,2.94-14.04,5.27-21.46,6.09
			c-8.88,0.98-18.21-0.33-25.87-4.94c-1.26-0.76-2.54-1.69-2.88-3.18c-0.17-0.74,0.01-1.55,0.51-2.11c0.75-0.84,1.66-0.65,2.5-0.47
			c3.93,0.86,9.23,1.73,13.16,2.59"/>
	</g>
	<g>
		<g>
			<path style="fill:#F46A5B;stroke:#422724;stroke-linecap:round;stroke-linejoin:round;stroke-miterlimit:10;" d="M260.42,174.49
				c-14.69-1.54-29.06-6.09-41.96-13.27c-2.8-1.56-6.62-3.14-8.87-0.84c-1.51,1.54-1.29,4.2-0.05,5.97c1.24,1.77,3.23,2.83,5.2,3.73
				c13.28,6.06,28.19,7.29,43.29,7.35C258.71,176.45,259.39,175.49,260.42,174.49z"/>
			<path style="fill:#F46A5B;stroke:#422724;stroke-linecap:round;stroke-linejoin:round;stroke-miterlimit:10;" d="M256.11,176.24
				c-12.77-0.59-25.45-3.16-37.44-7.6c-2.36-0.87-5.3-1.72-7.15-0.01c-1.53,1.41-1.38,4.01-0.19,5.71c1.19,1.71,3.14,2.7,5.06,3.5
				c12.19,5.06,25.94,4.61,39.04,2.95C255.58,179.38,255.74,177.96,256.11,176.24z"/>
			<path style="fill:#F46A5B;stroke:#422724;stroke-linecap:round;stroke-linejoin:round;stroke-miterlimit:10;" d="M256.2,179.47
				c-10.69-0.78-21.38-1.55-32.07-2.33c-0.84-0.06-1.73-0.11-2.49,0.26c-1.58,0.78-1.79,3.13-0.82,4.6c0.97,1.47,2.7,2.23,4.38,2.76
				c9.87,3.13,20.55,1.05,30.7-1.05C256.05,182.23,256.2,180.76,256.2,179.47z"/>
		</g>
		<path style="fill:#F2B460;stroke:#422724;stroke-linecap:round;stroke-linejoin:round;stroke-miterlimit:10;" d="M350.2,157.88
			c0,0,9.1,5.99,11.5,16.5c0,0-13.06-1.12-18.17,0.74C343.53,175.12,346.81,159.99,350.2,157.88z"/>
		<path style="fill:#F2B460;stroke:#422724;stroke-linecap:round;stroke-linejoin:round;stroke-miterlimit:10;" d="M255.55,202.94
			c-1.45-1.29-1.21-3.85,0.2-5.18c1.41-1.34,3.61-1.57,5.48-1.03c1.87,0.54,3.48,1.72,4.97,2.96c1.02,0.84,2.03,1.75,2.69,2.9
			c0.66,1.15,0.92,2.6,0.39,3.81c-0.63,1.44-2.22,2.23-3.77,2.5c-1,0.17-2.11,0.15-2.9-0.47c-0.79-0.63-0.99-2.02-0.17-2.61
			c0.63-0.44,1.59-0.3,2.1-0.88c0.62-0.71,0.01-1.81-0.64-2.49c-0.61-0.62-1.32-1.22-2.18-1.33c-0.86-0.1-1.85,0.52-1.83,1.39
			c0.02,0.62,0.52,1.14,0.58,1.76c0.11,1.1-1.29,1.85-2.36,1.55C257.03,205.51,256.89,204.13,255.55,202.94z"/>
		<path style="fill:#383D59;stroke:#422724;stroke-linecap:round;stroke-linejoin:round;stroke-miterlimit:10;" d="M302.42,184.09
			c-1.77-4.06-3.54-8.16-4.54-12.47c-0.58-2.52-0.88-5.14-0.72-7.78c0.23-3.74-1.25-7.35-3.75-10.13
			c-6.73-7.51-10.09-18.07-8.48-28.07c0.18-1.09,0-2.23-0.67-3.1c-1.7-2.21-4.15-0.94-5.66,0.58c-3.11,3.13-4.75,7.66-4.36,12.06
			c-2.2-1.86-5.87,0.14-6.68,2.91c-0.81,2.77,0.26,5.69,1.32,8.38c-2.41,0.47-4.4,2.59-4.72,5.02c-0.32,2.43,1.05,5,3.25,6.08
			c-2.76-0.62-5.15,2.57-4.89,5.38c0.26,2.81,2.22,5.14,4.08,7.26c-1.58-0.86-3.56,0.96-3.5,2.76s1.41,3.28,2.8,4.42
			c3.72,3.03,8.38,4.88,13.16,5.23"/>
		<path style="fill:#505F7A;stroke:#422724;stroke-linecap:round;stroke-linejoin:round;stroke-miterlimit:10;" d="M297.14,171.99
			c-6.23,3.48-13.87,1.94-20.88,0.73c-7.01-1.21-15.07-1.71-20.33,3.16c-4.13,3.82-5.3,10.32-3.51,15.71
			c1.79,5.38,6.19,9.61,11.26,11.98c5.08,2.37,10.79,3.03,16.37,2.81c7.82-0.3,15.75-2.35,22.05-7.07
			c6.3-4.72,10.73-12.36,10.49-20.31C306.24,178.7,300.02,175.93,297.14,171.99z"/>
		<path style="fill:#F46A5B;stroke:#422724;stroke-linecap:round;stroke-linejoin:round;stroke-miterlimit:10;" d="M285.86,158.34
			c0-16.29,14.27-34,32.5-34c18.23,0,33.5,17.71,33.5,34s-15.27,25-33.5,25C300.13,183.34,285.86,174.63,285.86,158.34z"/>
		<ellipse style="fill:#422724;" cx="336.96" cy="164.64" rx="3.75" ry="4.5"/>
		<path style="fill:#F2B460;stroke:#422724;stroke-linecap:round;stroke-linejoin:round;stroke-miterlimit:10;" d="M250.7,200.51
			c-1.07-1.63-0.17-4.03,1.54-4.95c1.71-0.92,3.89-0.58,5.56,0.43c1.67,1.01,2.91,2.57,4.03,4.15c0.76,1.08,1.5,2.21,1.84,3.49
			c0.34,1.28,0.22,2.75-0.61,3.78c-0.98,1.23-2.73,1.58-4.29,1.44c-1.01-0.09-2.08-0.4-2.68-1.21c-0.6-0.81-0.43-2.21,0.52-2.56
			c0.72-0.27,1.62,0.13,2.25-0.3c0.79-0.53,0.49-1.75,0.03-2.57c-0.42-0.76-0.96-1.53-1.76-1.85c-0.8-0.32-1.93,0.02-2.13,0.87
			c-0.15,0.6,0.2,1.23,0.1,1.85c-0.18,1.09-1.73,1.45-2.68,0.88C251.47,203.39,251.68,202,250.7,200.51z"/>
		<path style="fill:#505F7A;stroke:#422724;stroke-linecap:round;stroke-linejoin:round;stroke-miterlimit:10;" d="M289.2,179.45
			c-2.69-3.52-5.39-7.07-7.4-11.02c-1.17-2.31-2.09-4.77-2.56-7.38c-0.67-3.68-2.97-6.83-6.07-8.94
			c-8.34-5.68-14.13-15.12-14.96-25.22c-0.09-1.1-0.53-2.17-1.39-2.85c-2.18-1.74-4.25,0.08-5.36,1.92
			c-2.27,3.78-2.78,8.58-1.35,12.75c-2.58-1.27-5.66,1.55-5.79,4.43c-0.13,2.88,1.62,5.47,3.29,7.82c-2.22,1.04-3.65,3.57-3.38,6.01
			c0.27,2.44,2.22,4.6,4.61,5.12c-2.82,0.06-4.39,3.73-3.46,6.39c0.93,2.66,3.38,4.45,5.7,6.07c-1.74-0.45-3.23,1.78-2.74,3.51
			c0.49,1.73,2.15,2.85,3.78,3.62c4.33,2.05,9.3,2.73,14.03,1.92"/>
	</g>
	<g>
		<g>
			<path style="fill:#F46A5B;stroke:#422724;stroke-linecap:round;stroke-linejoin:round;stroke-miterlimit:10;" d="M90.11,174.49
				c-14.69-1.54-29.06-6.09-41.96-13.27c-2.8-1.56-6.62-3.14-8.87-0.84c-1.51,1.54-1.29,4.2-0.05,5.97c1.24,1.77,3.23,2.83,5.2,3.73
				c13.28,6.06,28.19,7.29,43.29,7.35C88.4,176.45,89.08,175.49,90.11,174.49z"/>
			<path style="fill:#F46A5B;stroke:#422724;stroke-linecap:round;stroke-linejoin:round;stroke-miterlimit:10;" d="M85.8,176.24
				c-12.77-0.59-25.45-3.16-37.44-7.6c-2.36-0.87-5.3-1.72-7.15-0.01c-1.53,1.41-1.38,4.01-0.19,5.71c1.19,1.71,3.14,2.7,5.06,3.5
				c12.19,5.06,25.94,4.61,39.04,2.95C85.27,179.38,85.42,177.96,85.8,176.24z"/>
			<path style="fill:#F46A5B;stroke:#422724;stroke-linecap:round;stroke-linejoin:round;stroke-miterlimit:10;" d="M85.89,179.47
				c-10.69-0.78-21.38-1.55-32.07-2.33c-0.84-0.06-1.73-0.11-2.49,0.26c-1.58,0.78-1.79,3.13-0.82,4.6c0.97,1.47,2.7,2.23,4.38,2.76
				c9.87,3.13,20.55,1.05,30.7-1.05C85.73,182.23,85.88,180.76,85.89,179.47z"/>
		</g>
		<path style="fill:#F2B460;stroke:#422724;stroke-linecap:round;stroke-linejoin:round;stroke-miterlimit:10;" d="M179.89,157.88
			c0,0,9.1,5.99,11.5,16.5c0,0-13.06-1.12-18.17,0.74C173.22,175.12,176.5,159.99,179.89,157.88z"/>
		<path style="fill:#F2B460;stroke:#422724;stroke-linecap:round;stroke-linejoin:round;stroke-miterlimit:10;" d="M85.24,202.94
			c-1.45-1.29-1.21-3.85,0.2-5.18c1.41-1.34,3.61-1.57,5.48-1.03c1.87,0.54,3.48,1.72,4.97,2.96c1.02,0.84,2.03,1.75,2.69,2.9
			c0.66,1.15,0.92,2.6,0.39,3.81c-0.63,1.44-2.22,2.23-3.77,2.5c-1,0.17-2.11,0.15-2.9-0.47c-0.79-0.63-0.99-2.02-0.17-2.61
			c0.63-0.44,1.59-0.3,2.1-0.88c0.62-0.71,0.01-1.81-0.64-2.49c-0.61-0.62-1.32-1.22-2.18-1.33c-0.86-0.1-1.85,0.52-1.83,1.39
			c0.02,0.62,0.52,1.14,0.58,1.76c0.11,1.1-1.29,1.85-2.36,1.55C86.72,205.51,86.58,204.13,85.24,202.94z"/>
		<path style="fill:#383D59;stroke:#422724;stroke-linecap:round;stroke-linejoin:round;stroke-miterlimit:10;" d="M136.02,183.91
			c-7.48-12.37,4.48-29.56,0.13-41.16c-3.5-9.36-13.55-15.05-17.05-24.41c-0.56-1.5-0.95-3.1-1.79-4.47
			c-0.84-1.37-2.29-2.52-3.9-2.42c-1.99,0.11-3.45,2.13-3.64,4.11c-0.2,1.99,0.54,3.93,1.27,5.79c-2.89,0.05-5.64,2.09-6.53,4.84
			s0.15,6.01,2.46,7.75c-2.57,1.12-4.49,3.6-4.93,6.37c-0.44,2.76,0.61,5.72,2.7,7.59c-3.01,0.96-5.18,4.08-5.03,7.23
			c0.15,3.15,2.61,6.05,5.7,6.72c-3.11,1.83-3.34,6.54-1.42,9.6c1.92,3.06,5.27,4.86,8.48,6.52"/>
		<path style="fill:#505F7A;stroke:#422724;stroke-linecap:round;stroke-linejoin:round;stroke-miterlimit:10;" d="M126.83,171.99
			c-6.23,3.48-13.87,1.94-20.88,0.73c-7.01-1.21-15.07-1.71-20.33,3.16c-4.13,3.82-5.3,10.32-3.51,15.71
			c1.79,5.38,6.19,9.61,11.26,11.98c5.08,2.37,10.79,3.03,16.37,2.81c7.82-0.3,15.75-2.35,22.05-7.07
			c6.3-4.72,10.73-12.36,10.49-20.31C135.93,178.7,129.71,175.93,126.83,171.99z"/>
		<path style="fill:#F46A5B;stroke:#422724;stroke-linecap:round;stroke-linejoin:round;stroke-miterlimit:10;" d="M115.54,158.34
			c0-16.29,14.27-34,32.5-34s33.5,17.71,33.5,34s-15.27,25-33.5,25S115.54,174.63,115.54,158.34z"/>
		<ellipse style="fill:#422724;" cx="166.64" cy="164.64" rx="3.75" ry="4.5"/>
		<path style="fill:#505F7A;stroke:#422724;stroke-linecap:round;stroke-linejoin:round;stroke-miterlimit:10;" d="M119.86,179.54
			c-10.22-10.22-2.72-29.77-9.72-40c-5.64-8.25-16.76-11.37-22.4-19.62c-0.91-1.33-1.66-2.78-2.8-3.91
			c-1.14-1.13-2.83-1.89-4.36-1.42c-1.91,0.59-2.84,2.89-2.55,4.87c0.28,1.98,1.47,3.69,2.62,5.32c-2.79,0.74-4.97,3.38-5.18,6.27
			c-0.2,2.88,1.58,5.8,4.24,6.93c-2.22,1.7-3.5,4.57-3.26,7.36c0.23,2.79,1.96,5.41,4.43,6.72c-2.69,1.65-4.05,5.2-3.15,8.23
			c0.9,3.03,3.99,5.25,7.14,5.16c-2.59,2.52-1.68,7.15,0.91,9.66c2.59,2.51,6.28,3.46,9.79,4.3"/>
		<path style="fill:#F2B460;stroke:#422724;stroke-linecap:round;stroke-linejoin:round;stroke-miterlimit:10;" d="M80.39,200.51
			c-1.07-1.63-0.17-4.03,1.54-4.95s3.89-0.58,5.56,0.43c1.67,1,2.91,2.57,4.03,4.15c0.76,1.08,1.5,2.21,1.84,3.49
			c0.34,1.28,0.22,2.75-0.61,3.78c-0.98,1.23-2.73,1.58-4.29,1.44c-1.01-0.09-2.08-0.4-2.68-1.21s-0.43-2.21,0.52-2.56
			c0.72-0.27,1.62,0.13,2.25-0.3c0.79-0.53,0.49-1.75,0.03-2.57c-0.42-0.76-0.96-1.53-1.76-1.85c-0.8-0.32-1.93,0.02-2.13,0.87
			c-0.15,0.6,0.2,1.23,0.1,1.85c-0.18,1.09-1.73,1.45-2.68,0.88C81.16,203.39,81.37,202,80.39,200.51z"/>
	</g>
</g>
<g id="TEXTS">
	<g>
		
			<text transform="matrix(1 0 0 1 103.0562 79.557)" style="fill:#525FA3; font-family:'Montserrat-SemiBold'; font-size:20.5716px;">1</text>
		
			<text transform="matrix(1 0 0 1 292.7002 79.557)" style="fill:#525FA3; font-family:'Montserrat-SemiBold'; font-size:20.5716px;">2</text>
		
			<text transform="matrix(1 0 0 1 464.1282 79.557)" style="fill:#525FA3; font-family:'Montserrat-SemiBold'; font-size:20.5716px;">3</text>
		
			<text transform="matrix(1 0 0 1 629.0877 79.5571)" style="fill:#525FA3; font-family:'Montserrat-SemiBold'; font-size:20.5716px;">4</text>
		<text transform="matrix(1 0 0 1 103.0563 305)" style="fill:#525FA3; font-family:'Montserrat-SemiBold'; font-size:20.5716px;">5</text>
		<text transform="matrix(1 0 0 1 292.7003 305)" style="fill:#525FA3; font-family:'Montserrat-SemiBold'; font-size:20.5716px;">6</text>
		<text transform="matrix(1 0 0 1 464.1283 305)" style="fill:#525FA3; font-family:'Montserrat-SemiBold'; font-size:20.5716px;">7</text>
		
			<text transform="matrix(1 0 0 1 629.0878 305.0001)" style="fill:#525FA3; font-family:'Montserrat-SemiBold'; font-size:20.5716px;">8</text>
	</g>
</g>
</svg>
